<?xml version="1.0" encoding="utf-8"?>
<!-- Generator: Adobe Illustrator 15.1.0, SVG Export Plug-In . SVG Version: 6.00 Build 0)  -->
<!DOCTYPE svg PUBLIC "-//W3C//DTD SVG 1.1//EN" "http://www.w3.org/Graphics/SVG/1.1/DTD/svg11.dtd">
<svg version="1.1" id="Ebene_1" xmlns="http://www.w3.org/2000/svg" xmlns:xlink="http://www.w3.org/1999/xlink" x="0px" y="0px"
	 width="100px" height="100px" viewBox="0 0 100 100" enable-background="new 0 0 100 100" xml:space="preserve">
<g>
	<path fill="#1A171B" d="M56.246,39.053c0.884,0,1.601-0.716,1.601-1.6c0-0.885-0.717-1.601-1.601-1.601s-1.601,0.716-1.601,1.601
		C54.646,38.337,55.362,39.053,56.246,39.053"/>
	<path fill="#1A171B" d="M43.754,39.053c0.884,0,1.601-0.716,1.601-1.6c0-0.885-0.717-1.601-1.601-1.601s-1.601,0.716-1.601,1.601
		C42.153,38.337,42.87,39.053,43.754,39.053"/>
	<path fill="#1A171B" d="M55.036,21.373h-0.192c-0.192-1.19-1.133-1.889-2.605-1.889h-4.478c-1.578,0-2.45,0.645-2.611,1.907h-0.188
		c-2.001,0.003-5.784,1.219-5.784,5.794v9.15c0,2.001,1.209,5.787,5.784,5.795l0.664,0.001l-3.601,4.925
		c-0.261,0.356-0.184,0.856,0.173,1.116c0.143,0.104,0.308,0.154,0.471,0.154c0.246,0,0.489-0.113,0.646-0.327l0.046-0.062h13.281
		L56.687,48c0.156,0.214,0.398,0.327,0.646,0.327c0.163,0,0.328-0.05,0.471-0.154c0.356-0.26,0.434-0.76,0.173-1.116l-3.59-4.909
		l0.652,0.001c0.06,0,1.467-0.008,2.866-0.711c1.332-0.668,2.919-2.09,2.919-5.065V27.15C60.823,25.152,59.616,21.373,55.036,21.373
		z M47.761,21.021h4.478c1.023,0,1.109,0.424,1.109,0.82c0,0.445,0,0.867-1.109,0.867h-4.478c-1.108,0-1.108-0.273-1.108-0.873
		C46.652,21.328,46.652,21.021,47.761,21.021z M55.473,46.34H44.527l0.91-1.245h9.125L55.473,46.34z M53.395,43.497h-6.789
		l0.996-1.361l4.803,0.008L53.395,43.497z M59.226,36.372c0,4.038-3.756,4.176-4.188,4.179l-10.074-0.018
		c-4.042-0.007-4.186-3.771-4.188-4.197v-9.15c0-4.042,3.763-4.192,4.189-4.196l0.343-0.001c0.266,0.636,0.905,1.258,2.454,1.258
		h4.478c1.229,0,2.052-0.448,2.421-1.274l0.392-0.001c4.028,0,4.172,3.755,4.175,4.18V36.372z"/>
	<path fill="#1A171B" d="M55.277,34.176l-10.555-0.01c-1.948-0.002-2.655-1.59-2.655-2.657v-4.578c0-1.297,1.057-1.769,1.767-1.769
		l11.442-0.011c1.95,0,2.656,1.587,2.656,2.653v3.718C57.933,33.47,56.345,34.176,55.277,34.176z M55.28,26.687l-11.444,0.011
		c-0.233,0.012-0.233,0.119-0.233,0.233v4.578c0.007,0.332,0.13,1.121,1.122,1.122l10.549,0.01c0.34-0.007,1.124-0.131,1.124-1.118
		v-3.718C56.391,27.474,56.269,26.687,55.28,26.687z"/>
</g>
<g>
	<path d="M43.124,58.715l-0.221,1.309l-0.238,0.068c-0.68-0.521-1.395-0.782-2.143-0.782c-0.42,0-0.785,0.085-1.096,0.255
		c-0.312,0.17-0.551,0.391-0.715,0.663s-0.246,0.556-0.246,0.85c0,0.307,0.094,0.576,0.281,0.808
		c0.186,0.232,0.422,0.434,0.705,0.604s0.668,0.374,1.156,0.612c0.611,0.283,1.104,0.547,1.479,0.79
		c0.373,0.244,0.693,0.553,0.961,0.927c0.266,0.374,0.398,0.827,0.398,1.36c0,0.566-0.152,1.088-0.459,1.563
		c-0.305,0.477-0.736,0.856-1.291,1.14c-0.557,0.283-1.191,0.425-1.904,0.425c-1.043,0-2.018-0.255-2.924-0.766l0.17-1.394
		l0.188-0.085c0.396,0.386,0.834,0.672,1.316,0.858c0.482,0.188,0.943,0.28,1.387,0.28c0.43,0,0.812-0.085,1.146-0.255
		s0.59-0.396,0.766-0.68s0.264-0.584,0.264-0.901c0-0.476-0.182-0.858-0.545-1.147s-0.912-0.604-1.648-0.943
		c-0.602-0.295-1.082-0.558-1.445-0.79s-0.674-0.533-0.936-0.901c-0.26-0.368-0.391-0.818-0.391-1.352
		c0-0.555,0.15-1.065,0.451-1.53c0.299-0.464,0.719-0.83,1.258-1.096c0.537-0.267,1.152-0.4,1.844-0.4
		C41.476,58.204,42.284,58.375,43.124,58.715z"/>
	<path d="M53.323,66.144c0,2.074-1.49,3.111-4.471,3.111c-0.998,0-1.797-0.023-2.398-0.068h-0.016l0.084-3.281l-0.084-7.616
		l3.025-0.017c1.02,0,1.805,0.227,2.355,0.68c0.549,0.454,0.824,1.111,0.824,1.973c0,0.611-0.143,1.139-0.426,1.581
		c-0.283,0.441-0.686,0.776-1.207,1.003C52.552,63.814,53.323,64.693,53.323,66.144z M51.198,67.589
		c0.498-0.352,0.748-0.855,0.748-1.514c0-1.11-0.697-1.745-2.092-1.903l-2.09,0.017l-0.018,1.598l0.051,2.278
		c0.441,0.034,0.861,0.051,1.258,0.051C49.985,68.115,50.698,67.94,51.198,67.589z M50.765,59.794
		c-0.322-0.266-0.848-0.399-1.572-0.399h-1.377L47.78,63.05l1.871,0.051c1.064-0.249,1.598-0.924,1.598-2.023
		C51.249,60.488,51.087,60.061,50.765,59.794z"/>
	<path d="M63.132,66.144c0,2.074-1.49,3.111-4.471,3.111c-0.996,0-1.797-0.023-2.396-0.068h-0.018l0.086-3.281l-0.086-7.616
		l3.027-0.017c1.02,0,1.805,0.227,2.354,0.68c0.549,0.454,0.824,1.111,0.824,1.973c0,0.611-0.141,1.139-0.424,1.581
		c-0.285,0.441-0.688,0.776-1.207,1.003C62.362,63.814,63.132,64.693,63.132,66.144z M61.007,67.589
		c0.5-0.352,0.748-0.855,0.748-1.514c0-1.11-0.697-1.745-2.09-1.903l-2.092,0.017l-0.018,1.598l0.053,2.278
		c0.441,0.034,0.859,0.051,1.258,0.051C59.794,68.115,60.509,67.94,61.007,67.589z M60.573,59.794
		c-0.322-0.266-0.846-0.399-1.572-0.399h-1.377l-0.033,3.655l1.869,0.051c1.066-0.249,1.598-0.924,1.598-2.023
		C61.058,60.488,60.897,60.061,60.573,59.794z"/>
</g>
</svg>
