<?xml version="1.0" encoding="utf-8"?>
<!-- Generator: Adobe Illustrator 15.1.0, SVG Export Plug-In . SVG Version: 6.00 Build 0)  -->
<!DOCTYPE svg PUBLIC "-//W3C//DTD SVG 1.1//EN" "http://www.w3.org/Graphics/SVG/1.1/DTD/svg11.dtd">
<svg version="1.1" id="Ebene_1" xmlns="http://www.w3.org/2000/svg" xmlns:xlink="http://www.w3.org/1999/xlink" x="0px" y="0px"
	 width="100px" height="100px" viewBox="0 0 100 100" enable-background="new 0 0 100 100" xml:space="preserve">
<g>
	<g>
		<path fill="#1A171B" d="M37.297,59.256c0.811,0.931,1.215,2.269,1.215,4.015c0,1.871-0.432,3.315-1.293,4.34
			c-0.859,1.021-2.084,1.533-3.668,1.533c-1.492,0-2.646-0.482-3.461-1.447s-1.223-2.336-1.223-4.115
			c0-1.838,0.428-3.25,1.283-4.238c0.855-0.984,2.08-1.479,3.676-1.479C35.33,57.86,36.486,58.325,37.297,59.256z M30.279,63.405
			c0,3.056,1.119,4.582,3.357,4.582c2.297,0,3.443-1.491,3.443-4.479c0-1.525-0.277-2.66-0.836-3.4
			c-0.557-0.739-1.402-1.11-2.541-1.11C31.422,58.998,30.279,60.467,30.279,63.405z M32.932,54.849
			c0.125,0.127,0.188,0.305,0.188,0.532c0,0.24-0.068,0.438-0.207,0.584c-0.137,0.147-0.326,0.228-0.566,0.228
			c-0.229,0-0.408-0.07-0.535-0.207c-0.125-0.14-0.188-0.322-0.188-0.551c0-0.23,0.068-0.416,0.207-0.562s0.326-0.218,0.566-0.218
			C32.625,54.657,32.805,54.721,32.932,54.849z M35.635,54.849c0.127,0.127,0.189,0.305,0.189,0.532c0,0.24-0.068,0.438-0.207,0.584
			c-0.139,0.147-0.328,0.228-0.568,0.228c-0.229,0-0.408-0.07-0.533-0.207c-0.127-0.14-0.189-0.322-0.189-0.551
			c0-0.23,0.068-0.416,0.207-0.562c0.141-0.146,0.328-0.218,0.568-0.218C35.33,54.657,35.508,54.721,35.635,54.849z"/>
		<path fill="#1A171B" d="M47.174,58.782c0.586,0.558,0.879,1.357,0.879,2.402c0,1.229-0.365,2.191-1.096,2.894
			c-0.729,0.702-1.736,1.051-3.021,1.051h-1.309v0.435l0.068,3.44h-1.395l0.086-3.321l-0.086-7.718l3.377-0.019
			C45.756,57.946,46.588,58.228,47.174,58.782z M46.641,61.308c0-1.427-0.758-2.164-2.273-2.224l-1.67,0.051l-0.053,4.841
			l1.809,0.034C45.91,63.778,46.641,62.879,46.641,61.308z"/>
		<path fill="#1A171B" d="M59.332,69.004h-1.445l-5.701-8.836h-0.104l-0.018,5.201l0.053,3.635h-1.293l0.086-3.271l-0.051-7.771
			h1.447l5.684,8.836h0.119l-0.016-8.769l1.309-0.104l-0.104,7.836L59.332,69.004z"/>
		<path fill="#1A171B" d="M65.482,69.004l-3.686-11.041h1.41l0.26,1.121l2.809,8.522h0.104l3.102-8.457l0.273-1.188h1.379
			l-4.049,11.041L65.482,69.004L65.482,69.004z"/>
	</g>
	<path fill="#1A171B" d="M49.999,38.89c0.885,0,1.602-0.716,1.602-1.6c0-0.885-0.717-1.602-1.602-1.602
		c-0.883,0-1.6,0.717-1.6,1.602C48.399,38.174,49.116,38.89,49.999,38.89"/>
	<path fill="#1A171B" d="M49.999,38.89c0.885,0,1.602-0.716,1.602-1.6c0-0.885-0.717-1.602-1.602-1.602
		c-0.883,0-1.6,0.717-1.6,1.602C48.399,38.174,49.116,38.89,49.999,38.89"/>
	<path fill="#1A171B" d="M55.035,21.21h-0.193c-0.191-1.189-1.133-1.889-2.604-1.889H47.76c-1.578,0-2.449,0.645-2.611,1.906h-0.188
		c-2.002,0.004-5.785,1.219-5.785,5.795v9.149c0,2.001,1.211,5.787,5.785,5.795l0.664,0.001l-3.602,4.926
		c-0.26,0.355-0.184,0.855,0.174,1.115c0.143,0.104,0.307,0.154,0.471,0.154c0.246,0,0.488-0.113,0.646-0.327l0.045-0.062h13.281
		l0.047,0.062c0.154,0.214,0.396,0.327,0.645,0.327c0.164,0,0.328-0.051,0.473-0.154c0.355-0.26,0.434-0.76,0.172-1.115l-3.59-4.91
		l0.652,0.002c0.061,0,1.467-0.008,2.865-0.711c1.332-0.668,2.92-2.09,2.92-5.065v-9.222C60.822,24.989,59.615,21.21,55.035,21.21z
		 M47.76,20.858h4.479c1.021,0,1.109,0.424,1.109,0.819c0,0.445,0,0.867-1.109,0.867H47.76c-1.107,0-1.107-0.272-1.107-0.873
		C46.652,21.165,46.652,20.858,47.76,20.858z M55.473,46.177H44.527l0.91-1.244h9.125L55.473,46.177z M53.395,43.334h-6.789
		l0.996-1.36l4.803,0.008L53.395,43.334z M59.225,36.209c0,4.038-3.756,4.176-4.188,4.179L44.963,40.37
		c-4.043-0.008-4.186-3.771-4.188-4.197v-9.15c0-4.041,3.762-4.191,4.188-4.195l0.344-0.002c0.266,0.637,0.904,1.259,2.453,1.259
		h4.479c1.229,0,2.053-0.448,2.422-1.274h0.391c4.029,0,4.174,3.754,4.176,4.18v9.22H59.225z"/>
	<path fill="#1A171B" d="M55.278,34.013l-10.555-0.01c-1.949-0.002-2.656-1.59-2.656-2.657v-4.577c0-1.298,1.057-1.77,1.768-1.77
		l11.441-0.012c1.951,0,2.656,1.588,2.656,2.654v3.717C57.933,33.308,56.345,34.013,55.278,34.013z M55.28,26.524l-11.443,0.01
		c-0.232,0.013-0.232,0.119-0.232,0.234v4.577c0.006,0.332,0.129,1.121,1.121,1.122l10.549,0.01c0.34-0.007,1.125-0.131,1.125-1.117
		v-3.719C56.392,27.312,56.269,26.524,55.28,26.524z"/>
</g>
</svg>
